<svg width="24" height="25" viewBox="0 0 24 25" fill="none" xmlns="http://www.w3.org/2000/svg">
<path fill-rule="evenodd" clip-rule="evenodd" d="M13.165 12.5295L13.1634 12.1791C13.1513 10.7891 13.0666 9.54894 12.9206 8.76301C12.9206 8.74884 12.7613 7.96937 12.6599 7.70991C12.5006 7.33489 12.2126 7.01656 11.8515 6.81488C11.5624 6.67098 11.2592 6.59794 10.9417 6.59794C10.6922 6.60939 10.2806 6.73366 9.98692 6.83786L9.74283 6.93044C8.12612 7.56601 5.03561 9.64278 3.85199 10.9128L3.76473 11.0016L3.37527 11.4176C3.12982 11.7359 3 12.1251 3 12.5437C3 12.9187 3.11563 13.2937 3.3469 13.5968C3.41614 13.695 3.52766 13.821 3.62693 13.9274L4.006 14.3201C5.31046 15.6282 8.13485 17.4629 9.59883 18.0709C9.59883 18.0839 10.5086 18.4601 10.9417 18.4742H10.9995C11.6639 18.4742 12.2846 18.0992 12.6021 17.4931C12.6888 17.3274 12.772 17.0028 12.8352 16.7177L12.949 16.1794C13.0788 15.3138 13.165 13.986 13.165 12.5295ZM19.4967 14.0388C20.3269 14.0388 21 13.3661 21 12.5365C21 11.7069 20.3269 11.0343 19.4967 11.0343L15.7975 11.358C15.1463 11.358 14.6183 11.8846 14.6183 12.5365C14.6183 13.1873 15.1463 13.715 15.7975 13.715L19.4967 14.0388Z" fill="#616161"/>
</svg>
