<svg width="41" height="24" viewBox="0 0 41 24" fill="none" xmlns="http://www.w3.org/2000/svg">
<g clip-path="url(#clip0_1_573)">
<path fill-rule="evenodd" clip-rule="evenodd" d="M22.5171 17.5367C22.5171 17.5367 24.2437 18.598 26.9462 18.7458C29.6486 18.8937 32.4806 18.9212 34.7861 18.6954C37.0977 18.4691 40.1089 18.1704 40.4878 13.6573C40.876 9.03379 40.5723 4.63193 40.0806 3.07722C39.5889 1.52251 38.2515 0.103971 35.957 0.104679C33.4583 0.105513 32.3934 2.06955 32.3934 2.06955C32.3934 2.06955 31.1792 0.206558 26.7934 0.104679C22.1034 -0.00427266 20.5826 2.77493 20.5826 2.77493C20.5826 2.77493 18.6351 0.00691446 14.1172 0.00394052C9.59939 0.000966576 8.21186 1.76727 8.21186 1.76727C8.21186 1.76727 7.38216 0.205072 5.05549 0.0543322C2.41274 -0.11692 1.0504 1.20333 0.422848 3.42985C-0.217708 5.70225 0.012404 11.4717 0.219192 13.7581C0.474735 16.5839 1.84825 17.5871 1.84825 17.5871C1.84825 17.5871 1.13717 18.4069 1.13554 20.1061C1.13393 21.825 1.85294 23.6114 4.90277 23.6328C8.14891 23.6556 8.87364 22.6756 8.87364 22.6756C8.87364 22.6756 9.42087 23.6318 12.2336 23.6328C14.9758 23.6338 15.5936 22.6252 15.5936 22.6252C15.5936 22.6252 16.3136 23.6623 18.8008 23.6328C22.1994 23.5925 23.2523 22.3553 23.4335 20.7107C23.6417 18.8203 22.5171 17.5367 22.5171 17.5367Z" fill="#1B1918"/>
<path fill-rule="evenodd" clip-rule="evenodd" d="M16.4068 19.9534C16.4263 21.3699 16.9159 21.8959 18.5959 21.9183C20.2758 21.9405 21.801 21.8643 21.7013 20.1045C21.6004 18.3253 20.6148 18.3398 18.4941 18.2908C16.7945 18.2515 16.3898 18.7151 16.4068 19.9534ZM36.1084 1.86648C34.5 1.86648 33.1867 2.38733 33.7157 6.55194C34.0603 9.26499 35.5296 13.9113 32.2394 15.0664C28.9491 16.2214 26.5251 15.6013 26.1812 14.6633C25.8373 13.7253 25.9267 13.2023 25.9267 13.2023C25.9267 13.2023 27.5968 13.2761 29.4394 13.2526C31.1454 13.2309 32.1967 11.9526 32.443 10.2298C32.7654 7.97413 33.3167 2.52639 28.2175 1.96722C22.016 1.28713 21.4817 4.19636 21.5485 6.80384C21.6193 9.5656 21.7013 10.9855 21.7013 10.9855L19.9704 10.8847C19.9704 10.8847 20.2053 8.79876 20.0722 6.19925C19.9669 4.14066 18.1206 1.79311 14.2569 1.73472C10.1959 1.67338 8.40821 3.17239 8.26144 5.54428C8.16355 7.12696 8.10505 8.82494 8.41417 10.2298C9.02092 12.9872 15.8977 13.1519 15.8977 13.1519C15.8977 13.1519 15.8792 15.3475 15.5413 16.3259C15.3803 16.7925 15.45 16.9917 16.1014 17.0816C17.1294 17.2235 17.7875 17.233 18.6977 17.2328C19.5422 17.2327 19.7153 17.0493 19.8686 16.074C20.0469 14.9397 19.9704 13.0007 19.9704 13.0007L21.8031 13.1519C21.8031 13.1519 21.547 16.8891 27.7085 17.0312C34.6124 17.1905 37.7375 17.1905 38.4502 15.1168C39.3915 12.3777 38.8535 4.98034 38.5011 3.88169C38.1881 2.90592 37.7168 1.86648 36.1084 1.86648ZM5.76696 1.91682C3.73059 1.41304 2.36575 1.89022 1.99968 4.58707C1.61726 7.40431 1.82405 13.5281 2.20333 14.9152C2.48756 15.9549 3.32333 17.1321 6.42873 17.0312C9.53411 16.9305 12.2832 16.9809 13.3523 16.3259C14.4214 15.6709 14.5973 13.8424 12.2567 13.9152C9.8843 13.989 8.35746 14.7781 6.68325 13.6557C5.69932 12.996 6.27601 8.16413 6.47966 6.50154C6.68325 4.83897 7.80327 2.42065 5.76696 1.91682ZM2.8651 19.9534C2.88465 21.3699 3.37421 21.8959 5.0542 21.9183C6.73418 21.9405 8.25939 21.8643 8.15965 20.1045C8.05874 18.3253 7.07318 18.3398 4.95233 18.2908C3.25281 18.2515 2.84809 18.7151 2.8651 19.9534ZM9.58505 19.9534C9.60458 21.3699 10.0942 21.8959 11.7741 21.9183C13.4541 21.9405 14.9793 21.8643 14.8795 20.1045C14.7787 18.3253 13.7931 18.3398 11.6723 18.2908C9.97276 18.2515 9.56803 18.7151 9.58505 19.9534Z" fill="#FFCC00"/>
<path fill-rule="evenodd" clip-rule="evenodd" d="M16.1014 10.8343C16.1014 10.8343 12.4559 10.8164 12.1814 8.06339C11.7951 4.18833 15.3725 2.99887 15.8468 5.79623C16.3775 8.92557 16.1014 10.8343 16.1014 10.8343ZM25.9267 10.8847C25.9267 10.8847 29.3152 11.613 28.9303 7.55956C28.5454 3.50616 26.1535 3.47189 25.9267 5.69542C25.6999 7.91897 25.9267 10.8847 25.9267 10.8847Z" fill="#1B1918"/>
<path fill-rule="evenodd" clip-rule="evenodd" d="M25.4304 19.9678V20.9402H26.9295V19.9678C26.9295 19.8295 26.9614 19.7253 27.0244 19.6558C27.0875 19.5863 27.1705 19.5515 27.2735 19.5515C27.3772 19.5515 27.4618 19.5854 27.5265 19.6542C27.5911 19.7229 27.6239 19.8271 27.6239 19.9678V22.6401C27.6239 22.7807 27.5911 22.885 27.5257 22.9545C27.4602 23.024 27.3756 23.0588 27.2735 23.0588C27.1689 23.0588 27.0851 23.024 27.0228 22.9537C26.9606 22.8834 26.9295 22.7791 26.9295 22.6401V21.4994H25.4304V22.6401C25.4304 22.7807 25.3977 22.885 25.3323 22.9545C25.2668 23.024 25.1822 23.0588 25.08 23.0588C24.9755 23.0588 24.8917 23.024 24.8294 22.9537C24.7671 22.8834 24.736 22.7791 24.736 22.6401V19.9678C24.736 19.8287 24.7671 19.7253 24.8286 19.6558C24.89 19.5863 24.9739 19.5515 25.08 19.5515C25.1838 19.5515 25.2684 19.5854 25.3331 19.6542C25.3977 19.7229 25.4304 19.828 25.4304 19.9678ZM30.7169 21.7751C30.7169 21.9639 30.6873 22.1369 30.6283 22.2957C30.5684 22.4545 30.483 22.5911 30.3704 22.7049C30.2587 22.8194 30.1238 22.9063 29.9682 22.9671C29.8125 23.0279 29.6369 23.0588 29.4422 23.0588C29.2482 23.0588 29.0742 23.0279 28.9201 22.9663C28.7661 22.9047 28.632 22.8162 28.5187 22.7009C28.4061 22.5864 28.3199 22.4505 28.2616 22.2941C28.2033 22.1369 28.1738 21.9639 28.1738 21.7743C28.1738 21.5831 28.2033 21.4078 28.2624 21.249C28.3223 21.0903 28.4069 20.9544 28.5178 20.8414C28.6288 20.7292 28.7629 20.6424 28.9201 20.5816C29.0774 20.5207 29.2514 20.4899 29.4422 20.4899C29.6353 20.4899 29.8109 20.5207 29.9682 20.5823C30.1254 20.644 30.2603 20.7324 30.3728 20.8469C30.4854 20.9607 30.5708 21.0966 30.629 21.2546C30.6873 21.4118 30.7169 21.5855 30.7169 21.7751ZM30.0751 21.7751C30.0751 21.5176 30.0177 21.3178 29.9035 21.174C29.7886 21.031 29.6353 20.9591 29.4422 20.9591C29.3169 20.9591 29.2075 20.9907 29.1125 21.0547C29.0175 21.1187 28.9441 21.2135 28.893 21.3383C28.8411 21.4631 28.8156 21.6092 28.8156 21.7751C28.8156 21.9402 28.8411 22.0848 28.8914 22.208C28.9425 22.3312 29.0143 22.4261 29.1085 22.4916C29.2027 22.5571 29.3145 22.5896 29.4422 22.5896C29.6353 22.5896 29.7886 22.5177 29.9035 22.3731C30.0177 22.2293 30.0751 22.0295 30.0751 21.7751ZM33.6095 21.7751C33.6095 21.9639 33.58 22.1369 33.5209 22.2957C33.4611 22.4545 33.3756 22.5911 33.2631 22.7049C33.1514 22.8194 33.0164 22.9063 32.8608 22.9671C32.7052 23.0279 32.5296 23.0588 32.3348 23.0588C32.1409 23.0588 31.9668 23.0279 31.8128 22.9663C31.6587 22.9047 31.5247 22.8162 31.4113 22.7009C31.2987 22.5864 31.2125 22.4505 31.1543 22.2941C31.096 22.1369 31.0665 21.9639 31.0665 21.7743C31.0665 21.5831 31.096 21.4078 31.1551 21.249C31.2149 21.0903 31.2995 20.9544 31.4105 20.8414C31.5215 20.7292 31.6555 20.6424 31.8128 20.5816C31.97 20.5207 32.144 20.4899 32.3348 20.4899C32.528 20.4899 32.7036 20.5207 32.8608 20.5823C33.0181 20.644 33.1529 20.7324 33.2655 20.8469C33.3781 20.9607 33.4634 21.0966 33.5217 21.2546C33.58 21.4118 33.6095 21.5855 33.6095 21.7751ZM32.9678 21.7751C32.9678 21.5176 32.9103 21.3178 32.7962 21.174C32.6812 21.031 32.528 20.9591 32.3348 20.9591C32.2095 20.9591 32.1001 20.9907 32.0051 21.0547C31.9102 21.1187 31.8367 21.2135 31.7857 21.3383C31.7338 21.4631 31.7082 21.6092 31.7082 21.7751C31.7082 21.9402 31.7338 22.0848 31.784 22.208C31.8351 22.3312 31.9069 22.4261 32.0012 22.4916C32.0953 22.5571 32.2071 22.5896 32.3348 22.5896C32.528 22.5896 32.6812 22.5177 32.7962 22.3731C32.9103 22.2293 32.9678 22.0295 32.9678 21.7751ZM34.7015 20.8454V20.922C34.8212 20.7751 34.9465 20.6669 35.0758 20.5981C35.2051 20.5294 35.3512 20.4947 35.5148 20.4947C35.712 20.4947 35.8924 20.5444 36.0576 20.6447C36.2228 20.7451 36.3537 20.892 36.4495 21.0847C36.5452 21.2775 36.5932 21.5057 36.5932 21.7696C36.5932 21.9639 36.5652 22.1424 36.5101 22.3052C36.4551 22.4679 36.3785 22.6046 36.2819 22.7151C36.1853 22.8257 36.0711 22.9102 35.9395 22.9695C35.8078 23.0287 35.6665 23.0588 35.5148 23.0588C35.3328 23.0588 35.1795 23.0224 35.0559 22.9498C34.9321 22.8779 34.814 22.7712 34.7015 22.6306V23.5801C34.7015 23.8582 34.5993 23.9972 34.3949 23.9972C34.2752 23.9972 34.1954 23.9616 34.1563 23.8898C34.1171 23.8179 34.098 23.7136 34.098 23.5762V20.8486C34.098 20.7285 34.1244 20.6384 34.1778 20.5792C34.2305 20.5199 34.3031 20.4899 34.3949 20.4899C34.4851 20.4899 34.5594 20.5207 34.616 20.5816C34.6727 20.6431 34.7015 20.7308 34.7015 20.8454ZM35.9514 21.764C35.9514 21.5974 35.9259 21.4544 35.874 21.3351C35.8229 21.2159 35.7519 21.1234 35.6609 21.0594C35.5691 20.9955 35.4685 20.9639 35.3584 20.9639C35.182 20.9639 35.0335 21.0326 34.9129 21.1692C34.7924 21.3067 34.7318 21.5089 34.7318 21.7751C34.7318 22.0263 34.7917 22.2222 34.9114 22.3612C35.0319 22.5011 35.1804 22.5706 35.3584 22.5706C35.4637 22.5706 35.5619 22.5398 35.6521 22.4789C35.7423 22.4181 35.8149 22.3273 35.87 22.2056C35.9243 22.0832 35.9514 21.9363 35.9514 21.764ZM38.7188 22.7041C38.5639 22.8226 38.4147 22.911 38.271 22.9703C38.1265 23.0296 37.9645 23.0588 37.7857 23.0588C37.6221 23.0588 37.4776 23.0264 37.3539 22.9624C37.2302 22.8984 37.1344 22.8123 37.0673 22.7025C37.0003 22.5927 36.9667 22.4742 36.9667 22.3462C36.9667 22.1733 37.0218 22.0263 37.1328 21.9047C37.2437 21.7822 37.3962 21.7009 37.5902 21.659C37.63 21.6495 37.7306 21.629 37.891 21.5966C38.0515 21.5642 38.1896 21.535 38.3037 21.5073C38.4179 21.4805 38.5424 21.4481 38.6765 21.4094C38.6685 21.2427 38.6349 21.1203 38.5751 21.0428C38.5145 20.9646 38.3907 20.926 38.2015 20.926C38.0395 20.926 37.9174 20.948 37.836 20.9931C37.7538 21.0373 37.6835 21.1045 37.6253 21.1945C37.567 21.2838 37.5255 21.3423 37.5015 21.3715C37.4768 21.3999 37.4249 21.4141 37.3459 21.4141C37.2741 21.4141 37.2118 21.3912 37.1599 21.3454C37.1081 21.3004 37.0817 21.2419 37.0817 21.1708C37.0817 21.0594 37.1216 20.9513 37.2006 20.8462C37.2804 20.7411 37.4042 20.655 37.5726 20.5871C37.741 20.5191 37.9509 20.4851 38.2023 20.4851C38.4825 20.4851 38.7036 20.5184 38.864 20.5839C39.0245 20.6495 39.1379 20.753 39.2041 20.8951C39.2703 21.0373 39.3039 21.2253 39.3039 21.46C39.3039 21.6084 39.303 21.7341 39.3023 21.8375C39.3014 21.941 39.3007 22.0563 39.2991 22.1827C39.2991 22.3012 39.319 22.4252 39.3589 22.554C39.3988 22.682 39.418 22.7649 39.418 22.802C39.418 22.8668 39.3877 22.9261 39.3262 22.979C39.2639 23.0319 39.1945 23.0588 39.1163 23.0588C39.0509 23.0588 38.9861 23.0287 38.9223 22.9679C38.8584 22.9071 38.7906 22.8194 38.7188 22.7041ZM38.6765 21.7886C38.583 21.8225 38.4474 21.8588 38.2686 21.896C38.0906 21.9339 37.9669 21.9623 37.8983 21.9797C37.8296 21.9979 37.7642 22.0327 37.7019 22.084C37.6396 22.1361 37.6085 22.208 37.6085 22.3012C37.6085 22.3968 37.6452 22.4782 37.7186 22.5453C37.7913 22.6125 37.8871 22.6464 38.006 22.6464C38.1321 22.6464 38.2486 22.6188 38.3548 22.5643C38.4618 22.509 38.54 22.4387 38.5903 22.3518C38.6478 22.2562 38.6765 22.0982 38.6765 21.8786V21.7886Z" fill="#1B1918"/>
</g>
<defs>
<clipPath id="clip0_1_573">
<rect width="40.6667" height="24" fill="white"/>
</clipPath>
</defs>
</svg>
